<svg xmlns="http://www.w3.org/2000/svg" viewBox="0 0 81 82" width="81" height="82">
	<style>
		tspan { white-space:pre }
		.shp0 { opacity: 0.502;fill: #f5c506 } 
	</style>
	<g id="bnner+header">
		<g id="logo ">
			<path id="Shape 8 copy 4" class="shp0" d="M1.17 22.29L19.95 21.57L19.83 2.78L27.85 10.45L27.97 29.24L9.19 29.95L1.17 22.29ZM13.34 33.92L32.12 33.21L32 14.42L40.02 22.09L40.14 40.88L21.36 41.59L13.34 33.92ZM61.17 79.66L61.04 60.87L79.83 60.15L71.81 52.49L53.03 53.2L53.15 71.99L61.17 79.66ZM49 68.02L48.87 49.23L67.66 48.52L59.64 40.85L40.86 41.56L40.98 60.36L49 68.02ZM59.43 1.89L60.15 20.67L78.94 20.55L71.27 28.57L52.48 28.69L51.77 9.91L59.43 1.89ZM47.8 14.06L48.51 32.85L67.3 32.72L59.63 40.74L40.84 40.86L40.13 22.08L47.8 14.06ZM2.06 61.89L20.85 61.77L21.57 80.55L29.23 72.53L28.52 53.75L9.73 53.87L2.06 61.89ZM13.7 49.72L32.49 49.6L33.2 68.38L40.87 60.36L40.16 41.58L21.37 41.7L13.7 49.72Z" />
		</g>
	</g>
</svg>